/* XPM */
static char *magick[] = {
/* columns rows colors chars-per-pixel */
"41 41 3 1",
"  c Black",
". c #0000d9",
"X c None",
/* pixels */
"XXXXXXXXXXXXXXXXXXXXXXXXXXXXXXXXXXXXXXXXX",
"XXXXXXXXXXXXXXXXXXXXXXXXXXXXXXXXXXXXXXXXX",
"XXXXXXXXXXXXXXXXXXXXXXXXXXXXXXXXXXXXXXXXX",
"XXXXXXXXXXXXXXXXXXXXXXXXXXXXXXXXXXXXXXXXX",
"XXXXXXXXXXXXXXXXXXXXXXXXXXXXXXXXXXXXXXXXX",
"XXXXXXXXXXXXXXXXXXXXXXXXXXXXXXXXXXXXXXXXX",
"XXXXXXXXXXXXXXXXXXXXXXXXXXXXXXXXXXXXXXXXX",
"XXXXXXXXXXXXX.X.XX.XXXXXXXXXXXXXXXXXXXXXX",
"XXXXXXXXXXXX.X.X...   XXXXXXXXXXXXXXXXXXX",
"XXXXXXXXXXX.X.X.X  XX  XXXXXXXXXXXXXXXXXX",
"XXXXXXXXXXXX X.XX XX  ..XXXXXXXXXXXXXXXXX",
"XXXXXXXXXXX.X.XXX X  ... XXXXXXXXXXXXXXXX",
"XXXXXXXXXXXX.X.XX   . ... XXXXXXXXXXXXXXX",
"XXXXXXXXXXX.X.XXXX   . ... XXXXXXXXXXXXXX",
"XXXXXXXXXXXX.XXXXXX   . .. XXXXXXXXXXXXXX",
"XXXXXXXXXXX.X.XXXXXX   .  XXXXXXXXXXXXXXX",
"XXXXXXXXXXXX.XXXXXXXX    XXXXXXXXXXXXXXXX",
"XXXXXXXXXXX.XXXXXXXXXX  XXXXXXXXXXXXXXXXX",
"XXXXXXXXXXXX.XXXXXXXXXXXXXXXXXXXXXXXXXXXX",
"XXXXXXXXXXX.XXXXXXXXXXXXXXXXXXXXXXXXXXXXX",
"XXXXXXXXXXXXXXXXXXXXXXXXXXXXXXXXXXXXXXXXX",
"XXXXXXXXXXXXXXXXXXXXXXXXXXXXXXXXXXXXXXXXX",
"XXXXXXXXXXXXXXXXXXXXXXXXXXXXXXXXXXXXXXXXX",
"XXXXXXXXXXX        XX     XXXXXXXXXXXXXXX",
"XXXXXXXXXXXXXXXXXX XX XXXX XXXXXXXXXXXXXX",
"XXXXXXXXXXXXXXXXX XXX XXXXX XXXXXXXXXXXXX",
"XXXXXXXXXXXXXXXX XXXX XXXXX XXXXXXXXXXXXX",
"XXXXXXXXXXXXXXX XXXXX XXXXXX XXXXXXXXXXXX",
"XXXXXXXXXXXXXXXX  XXX XXXXXX XXXXXXXXXXXX",
"XXXXXXXXXXXXXXXXXX XX XXXXX XXXXXXXXXXXXX",
"XXXXXXXXXXXXXXXXXX XX XXXXX XXXXXXXXXXXXX",
"XXXXXXXXXXX  XXXX XXX XXXX XXXXXXXXXXXXXX",
"XXXXXXXXXXXXX    XXXX     XXXXXXXXXXXXXXX",
"XXXXXXXXXXXXXXXXXXXXXXXXXXXXXXXXXXXXXXXXX",
"XXXXXXXXXXXXXXXXXXXXXXXXXXXXXXXXXXXXXXXXX",
"XXXXXXXXXXXXXXXXXXXXXXXXXXXXXXXXXXXXXXXXX",
"XXXXXXXXXXXXXXXXXXXXXXXXXXXXXXXXXXXXXXXXX",
"XXXXXXXXXXXXXXXXXXXXXXXXXXXXXXXXXXXXXXXXX",
"XXXXXXXXXXXXXXXXXXXXXXXXXXXXXXXXXXXXXXXXX",
"XXXXXXXXXXXXXXXXXXXXXXXXXXXXXXXXXXXXXXXXX",
"XXXXXXXXXXXXXXXXXXXXXXXXXXXXXXXXXXXXXXXXX"
};
